<?xml version="1.0" standalone="no"?>
<!DOCTYPE svg PUBLIC "-//W3C//DTD SVG 20010904//EN"
 "http://www.w3.org/TR/2001/REC-SVG-20010904/DTD/svg10.dtd">
<svg version="1.0" xmlns="http://www.w3.org/2000/svg"
 width="2048.000000pt" height="2048.000000pt" viewBox="0 0 2048.000000 2048.000000"
 preserveAspectRatio="xMidYMid meet">

<g transform="translate(0.000000,2048.000000) scale(0.100000,-0.100000)"
fill="#000000" stroke="none">
<path d="M9815 20469 c-2295 -99 -4443 -935 -6185 -2408 -593 -502 -1110
-1051 -1588 -1686 -1132 -1506 -1826 -3311 -1996 -5195 -55 -607 -55 -1291 0
-1890 183 -1990 947 -3880 2198 -5440 248 -309 456 -541 756 -840 421 -422
819 -761 1278 -1089 1920 -1373 4211 -2036 6572 -1900 1855 106 3645 720 5181
1775 365 251 671 492 1029 808 187 166 688 669 851 856 714 816 1272 1686
1693 2638 989 2236 1143 4767 432 7114 -401 1325 -1088 2587 -1980 3638 -395
466 -890 951 -1361 1336 -1926 1573 -4389 2390 -6880 2283z m5600 -7009 c1139
-95 2141 -666 2802 -1595 372 -523 605 -1151 675 -1815 19 -182 16 -601 -5
-780 -58 -485 -174 -874 -387 -1295 -331 -657 -825 -1183 -1469 -1567 -787
-469 -1773 -630 -2692 -439 -496 104 -982 316 -1410 615 -392 275 -763 667
-1017 1073 l-77 123 -1551 0 -1550 0 -24 -42 c-48 -86 -201 -306 -293 -421
-915 -1144 -2393 -1659 -3817 -1331 -1487 343 -2636 1563 -2884 3064 -41 246
-50 367 -50 640 1 610 122 1126 394 1675 198 400 432 720 756 1035 608 591
1386 956 2233 1050 52 6 97 13 100 15 10 10 10146 5 10266 -5z"/>
<path d="M15345 11969 c-198 -30 -386 -140 -500 -290 -164 -218 -207 -490
-115 -741 128 -352 500 -564 862 -494 304 60 525 264 609 562 32 111 32 287 1
397 -93 330 -370 553 -710 571 -48 3 -114 1 -147 -5z"/>
<path d="M4897 11648 c-52 -14 -112 -73 -126 -123 -7 -27 -11 -240 -11 -667
l0 -628 -667 0 c-659 0 -667 0 -711 -21 -26 -13 -54 -38 -70 -62 l-27 -41 -3
-400 c-2 -261 1 -414 7 -437 15 -49 45 -86 92 -109 37 -19 61 -20 709 -20
l670 0 0 -632 c0 -431 4 -646 11 -673 15 -54 74 -109 132 -124 63 -15 751 -15
814 1 61 15 116 70 131 131 9 32 12 230 12 671 l0 626 628 2 629 3 36 28 c21
16 46 46 57 67 19 37 20 60 20 440 0 338 -2 406 -15 437 -21 50 -42 72 -90 94
-37 17 -80 19 -652 19 l-613 0 0 621 c0 437 -3 634 -12 666 -15 61 -70 116
-131 131 -58 15 -764 15 -820 0z"/>
<path d="M8830 10735 l0 -325 395 0 395 0 0 325 0 325 -395 0 -395 0 0 -325z"/>
<path d="M11000 10735 l0 -325 395 0 395 0 0 325 0 325 -395 0 -395 0 0 -325z"/>
<path d="M13834 10485 c-146 -32 -266 -98 -380 -210 -130 -128 -199 -270 -224
-457 -21 -154 20 -349 101 -484 41 -69 143 -181 207 -228 226 -165 542 -194
796 -72 154 74 274 194 351 351 64 129 80 196 80 345 0 100 -5 141 -23 203
-81 283 -304 494 -584 551 -92 19 -240 20 -324 1z"/>
<path d="M16730 10480 c-140 -35 -266 -106 -365 -206 -70 -72 -106 -123 -150
-217 -57 -119 -70 -184 -69 -337 0 -124 3 -142 31 -226 54 -155 134 -273 251
-366 142 -113 300 -168 479 -168 137 0 225 21 352 82 90 43 116 62 191 136 51
51 104 116 128 157 107 183 135 414 76 616 -64 216 -241 410 -454 496 -138 55
-326 69 -470 33z"/>
<path d="M15280 9030 c-180 -45 -350 -160 -449 -304 -44 -64 -97 -179 -118
-256 -28 -101 -25 -302 6 -400 106 -342 393 -560 738 -560 137 0 225 21 352
82 90 43 116 62 191 136 98 98 156 188 194 302 98 294 17 611 -209 817 -105
96 -227 160 -363 188 -93 20 -250 18 -342 -5z"/>
</g>
</svg>
